<svg version="1.0" xmlns="http://www.w3.org/2000/svg" xmlns:xlink="http://www.w3.org/1999/xlink" viewBox="0 0 340 250"
     color-interpolation-filters="sRGB" class="el-tooltip" style="margin:auto">
    <rect width="100%" height="100%" fill="none" class="background"/>
    <rect width="100%" height="100%" fill="url(#watermark)" class="watermarklayer"/>
    <g fill="#333" class="icon-text-wrapper icon-svg-group iconsvg">
        <g class="iconsvg-imagesvg" transform="translate(140 63.465)">
            <path class="image-rect" fill="none" d="M0 0h60v62.978H0z"/>
            <svg width="60" height="62.978" class="image-svg-svg primary">
                <svg xmlns="http://www.w3.org/2000/svg" viewBox="0 0 95.32 100">
                    <path d="M84.85 58.33a10.42 10.42 0 019.23 15.28A50 50 0 1194 26.22a10.44 10.44 0 01-9.14 15.45 10.27 10.27 0 01-9.09-5.34 29.18 29.18 0 10-.07 27.46 10.4 10.4 0 019.15-5.46z"
                          fill="#112129"/>
                    <circle cx="50" cy="50" r="16.67" fill="#0497d9"/>
                </svg>
            </svg>
        </g>
        <path d="M85.68 168.88l5.4-5.46q.27.11.46.21.2.11.47.22l-5.62 5.63q-.17-.17-.36-.3-.19-.14-.35-.3zm10.64-27.79h-1.36l7.53-7.54q.27.06.55.11.27.06.54.11l-7.26 7.32zm12.12-4.7l-5.46 5.41q-.22-.17-.41-.28-.19-.11-.46-.21l5.57-5.57q.22.16.38.32.16.17.38.33zm.93.88l-5.46 5.45q-.22-.38-.65-.71l5.4-5.4q.22.16.38.33.17.16.33.33zm.82 1.03l-5.68 5.68q-.11-.27-.19-.49-.08-.22-.19-.49l5.46-5.46q.16.22.3.38.13.16.3.38zm1.25 6.61l.77-.77q.05.22.05.77v1.91h-7.64v-1.91q0-.33-.05-.49l5.78-5.79q.17.22.3.41.14.19.25.41l-5.46 5.46h.49l5.13-5.13q.11.27.19.46.09.19.19.46l-4.14 4.21h.43l3.88-3.82q.11.27.16.52.06.24.17.51l-2.84 2.79h.49l2.4-2.4q.11.43.22 1.2l-1.26 1.2h.49zm-10.64-3.82h-.33l6.12-6.06q.21.11.4.24.2.14.41.3l-5.67 5.63q-.55-.11-.93-.11zm-2.62 0h-1.37l7.15-7.21q.66.16 1.04.38l-6.82 6.83zm1.8 0h-1.31l6.66-6.72q.27.11.49.22l.44.22-6.28 6.28zm-10.65 3.82v15.29q0 .49.06.7l-5.73 5.74-.5-.82 5.63-5.62h-.49l-5.3 5.29q-.27-.49-.44-.93l4.37-4.36h-.49l-4.04 4.04q-.11-.28-.16-.52-.06-.25-.17-.52l3-3h-.49l-2.62 2.62-.16-1.15 1.42-1.47h-.49l-.99 1.03q-.05-.27-.05-.52V144.91q0-2.35.9-4.45t2.46-3.66q1.55-1.55 3.63-2.46 2.07-.9 4.47-.9v.22l.22-.22h1.37l-1.59 1.59v.49l2.02-2.08h1.37l-3.39 3.44v.44l3.88-3.88h1.37l-5.25 5.24v.5l5.74-5.74h1.36l-7.1 7.1v.49l7.59-7.59h.69q.3 0 .62.06l-7.58 7.59h-1.32q-1.58 0-2.7 1.12t-1.12 2.7zm-5.46 22l5.63-5.57q.11.27.22.47.1.19.21.46l-5.46 5.4q-.16-.16-.3-.35-.13-.19-.3-.41zm.82 1.04l5.46-5.41q.11.17.28.36.16.19.38.3l-5.41 5.46-.71-.71zm19.93-7.75v-.66l6.22 6.17q-.11.16-.19.33-.08.16-.19.32l-5.84-5.89v-.27zm5.19-1.92h.98l1.47 1.48v.98l-2.45-2.46zm-1.86 0h.98l3.22 3.28q0 .27-.11.82l-4.09-4.1zm-1.86 0h.99l4.8 4.81q-.11.44-.22.76l-5.57-5.57zm6.17.6l-.6-.6h.6v.6zm-4.42 10.38l-5.57-5.57q.33-.06.66-.33l5.46 5.46q-.22.11-.55.44zm.98-.88l-5.4-5.4q.33-.33.44-.49l5.46 5.4-.5.49zm-15.67-4.36h7.65q.27 0 .82-.11l5.73 5.73q-.44.22-.6.38l-5.95-5.95v.22l-.33.33.27.27.06-.11v.16l5.4 5.36-.65.32-4.75-4.69v.22l-.33.32.27.22.06-.05v.16l4.09 4.1q-.16.1-.32.13-.17.03-.39.14l-3.38-3.39v.22l-.33.33.27.22.06-.06v.11l2.73 2.73-.82.17-1.91-1.91v.27l-.33.33.27.21.06-.05v.11l1.14 1.15q-.27.05-.49.05h-.43l-.22-.22v.22h-1.64l-.11-.05-.05.05h-1.7l-.05-.05-.11.05h-1.69l-.06-.05-.11.05h-1.69l-.05-.05-.11.05h-.79q-.25 0-.52-.05l1.03-.99v-.38l.17.16.44-.43-.22-.22-1.86 1.8q-.27-.05-.57-.08-.3-.03-.58-.14l2.62-2.56v-.39l.17.17.44-.44-.22-.22-3.39 3.39q-.27-.11-.52-.17-.24-.05-.52-.16l4.04-4.04v-.38l.17.16.44-.43-.22-.22-4.75 4.75q-.44-.17-.93-.44l5.29-5.3v-.38l.17.22.44-.44-.22-.27-6.01 6.01q-.22-.11-.41-.25l-.41-.3 5.68-5.68q.27.06.76.06zm2.24.16l-.43.44.21.27.44-.44-.22-.27zm-.92.93l-.44.44.22.21.43-.38-.21-.27zm-.22 6.22l.43-.43-.21-.22-.44.43.22.22zm0-1.85l.43-.44-.21-.22-.44.44.22.22zm0-1.86l.43-.44-.21-.22-.44.44.22.22zm.92 2.78l.44-.43-.22-.22-.43.44.21.21zm0-1.85l.44-.44-.22-.22-.43.44.21.22zm0-1.86l.44-.43-.22-.22-.43.43.21.22zm.93 4.64l.44-.43-.22-.22-.44.43.22.22zm0-1.85l.44-.44-.22-.22-.44.44.22.22zm0-1.86l.44-.44-.22-.22-.44.44.22.22zm0-1.86l.44-.38-.22-.27-.44.44.22.21zm.93 4.64l.44-.43-.22-.22-.44.44.22.21zm0-1.85l.44-.44-.22-.22-.44.44.22.22zm0-1.86l.44-.43-.22-.22-.44.43.22.22zm0-1.8l.44-.44-.22-.27-.44.44.22.27zm.93 6.44l.44-.43-.28-.22-.38.43.22.22zm0-1.85l.44-.44-.28-.22-.38.44.22.22zm0-1.86l.44-.44-.28-.22-.38.44.22.22zm0-1.86l.44-.38-.28-.27-.38.44.22.21zm.93 4.64l.43-.43-.27-.22-.44.44.28.21zm0-1.85l.43-.44-.27-.22-.44.44.28.22zm0-1.86l.43-.43-.27-.22-.44.43.28.22zm0-1.8l.43-.44-.27-.27-.44.44.28.27zm.93 6.44l.43-.43-.27-.22-.44.43.28.22zm0-1.85l.43-.44-.27-.22-.44.44.28.22zm0-1.86l.43-.44-.27-.22-.44.44.28.22zm0-1.86l.43-.38-.27-.27-.44.44.28.21zm4.8-7.48h.6l6.22 6.17q-.1.28-.32.71l-6.5-6.49v-.39zm5.08 9.12l-5.52-5.46q.17-.38.28-.71l5.67 5.63q-.11.16-.21.3-.11.13-.22.24zm36.74-22.49v15.29H146l.44.43q0 .27-.03.47-.02.19-.08.46l-1.31-1.36h-.87l2.07 2.07-.16.82-2.9-2.89h-.87l3.6 3.54q-.11.22-.16.39-.05.16-.11.38l-4.31-4.31h-.88l4.92 4.91q-.22.44-.33.6l-5.57-5.51h-.65v-15.29q0-.27-.03-.49-.03-.22-.08-.49l5.62-5.63.3.41q.14.19.25.41l-5.79 5.79h.49l5.46-5.52q.11.28.22.47.11.19.22.46l-4.53 4.59h.49l4.2-4.26q.11.27.19.52.08.24.19.52l-3.27 3.22h.49l2.84-2.84q.11.27.16.57.06.3.11.58l-1.75 1.69h.49l1.32-1.26q.05.28.05.6v.66zm-3.17-7.92l-5.4 5.41-.33-.33q-.16-.16-.38-.33l5.4-5.4q.22.16.39.32.16.17.32.33zm-.98-.87l-5.46 5.46q-.33-.22-.98-.38l5.68-5.68q.38.27.76.6zm1.8 1.91l-5.57 5.57q-.16-.44-.43-.93l5.4-5.4q.33.38.6.76zm-20.58 7.75v.98l-6.61-6.6.33-.66 6.28 6.28zm11.46 18.24h.06l5.95 5.95-.65.33-5.36-5.36v.88l4.81 4.8q-.16.11-.33.14-.16.03-.38.14l-4.1-4.1v.87l3.5 3.44q-.27.11-.82.22l-2.68-2.67v.82l1.97 2.02q-.22.05-.41.05-.19 0-.41.06l-1.15-1.15v.87l.33.33h-7.97q-2.4 0-4.48-.9-2.07-.9-3.63-2.46-1.55-1.55-2.45-3.63-.9-2.07-.9-4.47h.71l-.71-.71v-.99l1.69 1.7h.87l-2.56-2.57v-.98l3.55 3.55h.87l-4.42-4.43v-.98l5.4 5.41h.87l-6.27-6.28v-.99l7.26 7.27h.38q0 1.58 1.12 2.7t2.7 1.12h7.64zm-11.46-5.3v.98l-7.64-7.64v-.98l7.64 7.64zm0-1.86v.99l-7.64-7.65v-.98l7.64 7.64zm0-1.8v.99l-7.64-7.65v-.98l7.64 7.64zm17.96 14.58l-5.68-5.73q.44-.11.77-.22l5.51 5.51q-.16.11-.3.22-.13.11-.3.22zm2.84-2.78l-5.68-5.63q.17-.38.17-.87l5.89 5.9q-.11.16-.19.32-.08.17-.19.28zm-.82 1.03l-5.46-5.4q.17-.22.38-.66l5.52 5.52q-.11.16-.22.3-.11.13-.22.24zm-.98.93l-5.41-5.46q.33-.22.55-.44l5.4 5.41q-.32.33-.54.49zm-19-23.91v.05l-5.95-6q.11-.28.38-.6l5.68 5.67q-.11.55-.11.88zm-3.88-8.52l5.46 5.46q-.22.11-.54.44l-5.41-5.41.49-.49zm3.88 16.82v.98l-7.64-7.64v-.99l7.64 7.65zm-2.84-17.64l5.68 5.68q-.49.11-.71.27l-5.52-5.51q.11-.11.28-.22.16-.11.27-.22zm6.66 5.52h-.27l-5.84-5.84q.16-.17.6-.39l5.57 5.57.43-.44-.27-.21-.22.21v-.49l-4.97-4.91q.17-.11.36-.16.19-.06.35-.17l4.32 4.32.43-.44-.27-.22-.22.22v-.44l-3.66-3.66q.22-.11.41-.13.19-.03.36-.08l2.95 2.94.43-.43-.27-.28-.22.28v-.49l-2.18-2.19q.22-.05.41-.08.19-.03.46-.08l1.37 1.42.43-.44-.27-.27-.22.27v-.49l-.54-.55h1.58l-.33.28.27.27.44-.44-.11-.11h1.59l-.33.28.27.27.44-.44-.11-.11h1.53l-.28.28.28.27.38-.44-.06-.11h1.53l-.27.28.22.27.44-.44-.06-.11h1.53l-.77.77-.43.43.22.28 1.42-1.42q.27.05.57.08.3.03.57.14l-2.35 2.34-.43.44.22.27 3-3q.27.11.52.16.24.06.52.17l-3.83 3.82-.43.44.22.22 4.36-4.37q.28.11.5.22.21.11.49.21l-5.14 5.14-.43.43.22.22 5.62-5.62q.27.11.46.24.19.14.41.25l-5.78 5.84q-.17-.05-.5-.05h-.87l.17-.17-.22-.22-.39.39h-1.36l.11-.17-.22-.22-.38.39h-1.37l.17-.17-.28-.22-.38.39h-1.36l.16-.17-.27-.22-.38.39h-.77zm6.72-5.95l-.44.43.22.28.44-.44-.22-.27zm0 1.85l-.44.44.22.22.44-.44-.22-.22zm0 1.86l-.44.44.22.21.44-.43-.22-.22zm-.93-4.64l-.44.43.22.28.44-.44-.22-.27zm0 1.85l-.44.44.22.27.44-.43-.22-.28zm0 1.86l-.44.44.22.22.44-.44-.22-.22zm0 1.86l-.44.43.22.22.44-.44-.22-.21zm-.93-4.64l-.44.43.28.28.38-.44-.22-.27zm0 1.85l-.44.44.28.22.38-.44-.22-.22zm0 1.86l-.44.44.28.21.38-.43-.22-.22zm-.93-4.64l-.43.43.27.28.44-.44-.28-.27zm0 1.85l-.43.44.27.27.44-.43-.28-.28zm0 1.86l-.43.44.27.22.44-.44-.28-.22zm0 1.86l-.43.43.27.22.44-.44-.28-.21zm-.93-4.64l-.43.43.27.28.44-.44-.28-.27zm0 1.85l-.43.44.27.22.44-.44-.28-.22zm0 1.86l-.43.44.27.21.44-.43-.28-.22zm-.92-4.64l-.44.43.27.28.44-.44-.27-.27zm0 1.85l-.44.44.27.27.44-.43-.27-.28zm0 1.86l-.44.44.27.22.44-.44-.27-.22zm0 1.86l-.44.43.27.22.44-.44-.27-.21zm-.93-4.64l-.44.43.27.28.44-.44-.27-.27zm0 1.85l-.44.44.27.22.44-.44-.27-.22zm0 1.86l-.44.44.27.21.44-.43-.27-.22zm-9.72-1.53l5.4 5.46q-.1.11-.19.27-.08.17-.13.33l-5.57-5.51q.11-.11.24-.28.14-.16.25-.27zm4.75 14.03v.98l-7.64-7.64v-.46q0-.2.05-.47l7.59 7.59zm0-1.86v.99l-7.48-7.48.16-.82 7.32 7.31zm0-1.85v.98l-7.15-7.1q.11-.21.13-.38.03-.16.14-.38l6.88 6.88zM184 171.66h-1.36l4.64-4.64v1.36l-3.28 3.28zm1.86 0h-1.37l2.79-2.78v1.36l-1.42 1.42zm-3.72 0h-1.36l6.5-6.5v1.37l-5.14 5.13zm4.43-7.64h.71v.65l-6.99 6.99h-1.37l7.65-7.64zm.71 7.64h-.93l.93-.93v.93zm-15.29-4.59v-1.36l1.64-1.69h1.36l-3 3.05zm11.57-3.05h.71l-7.64 7.64h-1.36l7.64-7.64h-.49l-7.65 7.64h-1.36l7.64-7.64h-.49l-7.64 7.64h-.93v-.44l7.21-7.2h-.49l-6.72 6.71v-1.36l5.35-5.35h-.49l-4.86 4.86v-1.37l3.49-3.49h.11l-1.25-4.26-.44.44h-1.36l1.47-1.48-.11-.38-1.86 1.86h-1.36l2.89-2.9-.11-.38-3.27 3.28h-1.37l4.32-4.32-.11-.38-4.7 4.7h-1.36l5.78-5.74-.1-.38-6.12 6.12h-1.36l7.15-7.16-.11-.38-7.54 7.54h-1.36l7.64-7.65h1.2l-3.44-11.46h-.32l-3.66 12.12.65-.66h1.37l-2.62 2.62-.17.71 3.28-3.33h1.37l-5.25 5.24-.21.71 5.95-5.95h1.36l-7.64 7.65h-.17l-1.14 3.82h.6l-.38.32.27.28.44-.44-.17-.16h1.64l-.33.32.28.28.43-.44-.16-.16h.98v.98l-.16-.16-.44.43.27.28.33-.39v1.7l-.16-.17-.44.44.27.22.33-.33v1.69l-.16-.16-.44.43.27.22.33-.32v1.63l-.16-.11-.44.44.27.22.33-.33v.93h-.93l.11-.11-.27-.22-.33.33h-1.36l.11-.11-.28-.22-.32.33h-1.37l.11-.11-.22-.22-.38.33h-1.37l.11-.11-.21-.22-.39.33h-1.36l.11-.11-.22-.22-.38.33h-1.37l.11-.11-.22-.22-.32.33h-1.37l.11-.11-.27-.22-.33.33h-1.37l.11-.11-.27-.22-.33.33h-.93v-.76l.17.16.44-.44-.28-.22-.33.33v-1.69l.17.16.44-.43-.28-.22-.33.33v-1.7l.17.17.44-.44-.28-.22-.33.38v-1.74l.17.22.44-.44-.28-.27-.33.38v-1.2h1.21l-.39.32.28.28.43-.44-.16-.16h1.64l-.33.32.27.28.44-.44-.16-.16h.49l9.17-30.58h11.68l9.17 30.58zm-32.64 6.11l.43-.44-.27-.21-.44.43.28.22zm0-1.85l.43-.44-.27-.22-.44.44.28.22zm0-1.86l.43-.38-.27-.28-.44.44.28.22zm.92 4.64l.44-.44-.27-.22-.44.44.27.22zm0-1.86l.44-.43-.27-.22-.44.43.27.22zm0-1.85l.44-.44-.27-.22-.44.44.27.22zm0-1.8l.44-.44-.27-.27-.44.43.27.28zm.93 4.58l.44-.44-.27-.21-.44.43.27.22zm0-1.85l.44-.44-.27-.22-.44.44.27.22zm0-1.86l.44-.38-.27-.28-.44.44.27.22zm.93 4.64l.44-.44-.28-.22-.43.44.27.22zm0-1.86l.44-.43-.28-.22-.43.43.27.22zm0-1.85l.44-.44-.28-.22-.43.44.27.22zm0-1.8l.44-.44-.28-.27-.43.43.27.28zm.93 4.58l.38-.44-.22-.21-.43.43.27.22zm0-1.85l.38-.44-.22-.22-.43.44.27.22zm0-1.86l.38-.38-.22-.28-.43.44.27.22zm0-1.8l.38-.44-.11-.16h-.22l-.32.32.27.28zm.87 6.44l.44-.44-.22-.22-.44.44.22.22zm0-1.86l.44-.43-.22-.22-.44.43.22.22zm0-1.85l.44-.44-.22-.22-.44.44.22.22zm0-1.8l.44-.44-.22-.27-.44.43.22.28zm.93 4.58l.44-.44-.22-.21-.44.43.22.22zm0-1.85l.44-.44-.22-.22-.44.44.22.22zm0-1.86l.44-.38-.22-.28-.44.44.22.22zm0-1.8l.44-.44-.11-.16h-.22l-.33.32.22.28zm7.59 1.14l-.44.44.28.22.43-.38-.27-.28zm0 1.86l-.44.44.28.22.43-.44-.27-.22zm0 1.86l-.44.43.28.22.43-.44-.27-.21zm-.93-4.64l-.44.43.28.28.43-.44-.27-.27zm0 1.85l-.44.44.28.22.43-.44-.27-.22zm0 1.86l-.44.43.28.22.43-.43-.27-.22zm0 1.85l-.44.44.28.22.43-.44-.27-.22zm-5.73.66l.44-.44-.22-.22-.44.44.22.22zm0-1.86l.44-.43-.22-.22-.44.43.22.22zm0-1.85l.44-.44-.22-.22-.44.44.22.22zm0-1.8l.44-.44-.22-.27-.44.43.22.28zm.93 4.58l.43-.44-.21-.21-.44.43.22.22zm0-1.85l.43-.44-.21-.22-.44.44.22.22zm0-1.86l.43-.38-.21-.28-.44.44.22.22zm0-1.8l.43-.44-.11-.16h-.21l-.33.32.22.28zm.93 6.44l.43-.44-.22-.22-.43.44.22.22zm0-1.86l.43-.43-.22-.22-.43.43.22.22zm0-1.85l.43-.44-.22-.22-.43.44.22.22zm0-1.8l.43-.44-.22-.27-.43.43.22.28zm.92 4.58l.44-.44-.22-.21-.44.43.22.22zm0-1.85l.44-.44-.22-.22-.44.44.22.22zm0-1.86l.44-.38-.22-.28-.44.44.22.22zm0-1.8l.44-.44-.16-.16h-.17l-.33.32.22.28zm.93 6.44l.44-.44-.27-.22-.39.44.22.22zm0-1.86l.44-.43-.27-.22-.39.43.22.22zm0-1.85l.44-.44-.27-.22-.39.44.22.22zm1.09-1.59l-.43.44.27.22.44-.38-.28-.28zm0 1.86l-.43.44.27.22.44-.44-.28-.22zm0 1.86l-.43.43.27.22.44-.44-.28-.21zm-.65-4.37l-.27-.27-.39.43.22.28.44-.44zm10.48.11v-1.2h1.2l-1.2 1.2zm12.78-1.2h1.31l-7.65 7.64h-1.31l7.65-7.64zm9.88 4.86l5.4-5.46q.28.11.47.21.19.11.46.22l-5.62 5.63q-.17-.17-.36-.3-.19-.14-.35-.3zm10.64-27.79h-1.36l7.53-7.54q.28.06.55.11.27.06.54.11l-7.26 7.32zm12.12-4.7l-5.46 5.41q-.21-.17-.41-.28-.19-.11-.46-.21l5.57-5.57q.22.16.38.32.17.17.38.33zm.93.88l-5.46 5.45q-.22-.38-.65-.71l5.4-5.4q.22.16.38.33.17.16.33.33zm.82 1.03l-5.68 5.68q-.11-.27-.19-.49-.08-.22-.19-.49l5.46-5.46q.16.22.3.38.14.16.3.38zm1.26 6.61l.76-.77q.06.22.06.77v1.91h-7.65v-1.91q0-.33-.05-.49l5.78-5.79q.17.22.3.41.14.19.25.41l-5.46 5.46h.49l5.13-5.13q.11.27.2.46.08.19.19.46l-4.15 4.21h.43l3.88-3.82q.11.27.16.52.06.24.17.51l-2.84 2.79h.49l2.4-2.4q.11.43.22 1.2l-1.26 1.2h.5zm-10.65-3.82h-.33l6.12-6.06q.22.11.41.24l.41.3-5.68 5.63q-.55-.11-.93-.11zm-2.62 0h-1.37l7.16-7.21q.65.16 1.03.38l-6.82 6.83zm1.8 0h-1.31l6.66-6.72q.27.11.49.22l.44.22-6.28 6.28zm-10.64 3.82v15.29q0 .49.05.7l-5.73 5.74-.49-.82 5.62-5.62h-.49l-5.3 5.29q-.27-.49-.43-.93l4.36-4.36h-.49l-4.04 4.04q-.11-.28-.16-.52-.06-.25-.17-.52l3.01-3h-.49l-2.63 2.62-.16-1.15 1.42-1.47h-.49l-.98 1.03q-.06-.27-.06-.52V144.91q0-2.35.9-4.45t2.46-3.66q1.56-1.55 3.63-2.46 2.07-.9 4.48-.9v.22l.22-.22h1.36l-1.58 1.59v.49l2.02-2.08h1.36l-3.38 3.44v.44l3.87-3.88h1.37l-5.24 5.24v.5l5.73-5.74h1.36l-7.09 7.1v.49l7.59-7.59h.68q.3 0 .63.06l-7.59 7.59h-1.31q-1.59 0-2.71 1.12-1.11 1.12-1.11 2.7zm-5.46 22l5.62-5.57q.11.27.22.47.11.19.22.46l-5.46 5.4q-.17-.16-.3-.35l-.3-.41zm.81 1.04l5.46-5.41q.11.17.28.36.16.19.38.3l-5.41 5.46-.71-.71zm19.93-7.75v-.66l6.23 6.17q-.11.16-.2.33-.08.16-.19.32l-5.84-5.89v-.27zm5.19-1.92h.98l1.48 1.48v.98l-2.46-2.46zm-1.86 0h.98l3.23 3.28q0 .27-.11.82l-4.1-4.1zm-1.85 0h.98l4.8 4.81q-.11.44-.22.76l-5.56-5.57zm6.17.6l-.61-.6h.61v.6zm-4.43 10.38l-5.57-5.57q.33-.06.66-.33l5.46 5.46q-.22.11-.55.44zm.99-.88l-5.41-5.4q.33-.33.44-.49l5.46 5.4-.49.49zm-15.67-4.36h7.64q.27 0 .82-.11l5.73 5.73q-.44.22-.6.38l-5.95-5.95v.22l-.33.33.28.27.05-.11v.16l5.4 5.36-.65.32-4.75-4.69v.22l-.33.32.28.22.05-.05v.16l4.09 4.1q-.16.1-.32.13-.17.03-.39.14l-3.38-3.39v.22l-.33.33.28.22.05-.06v.11l2.73 2.73-.82.17-1.91-1.91v.27l-.33.33.28.21.05-.05v.11l1.15 1.15q-.28.05-.49.05h-.44l-.22-.22v.22h-1.64l-.11-.05-.05.05h-1.69l-.06-.05-.11.05h-1.69l-.05-.05-.11.05h-1.7l-.05-.05-.11.05h-.79q-.25 0-.52-.05l1.04-.99v-.38l.16.16.44-.43-.22-.22-1.86 1.8q-.27-.05-.57-.08-.3-.03-.57-.14l2.62-2.56v-.39l.16.17.44-.44-.22-.22-3.39 3.39q-.27-.11-.51-.17-.25-.05-.52-.16l4.04-4.04v-.38l.16.16.44-.43-.22-.22-4.75 4.75q-.44-.17-.93-.44l5.3-5.3v-.38l.16.22.44-.44-.22-.27-6.01 6.01q-.21-.11-.41-.25l-.41-.3 5.68-5.68q.28.06.77.06zm2.24.16l-.44.44.22.27.43-.44-.21-.27zm-.93.93l-.44.44.22.21.44-.38-.22-.27zm-.22 6.22l.44-.43-.22-.22-.44.43.22.22zm0-1.85l.44-.44-.22-.22-.44.44.22.22zm0-1.86l.44-.44-.22-.22-.44.44.22.22zm.93 2.78l.43-.43-.21-.22-.44.44.22.21zm0-1.85l.43-.44-.21-.22-.44.44.22.22zm0-1.86l.43-.43-.21-.22-.44.43.22.22zm.92 4.64l.44-.43-.22-.22-.43.43.21.22zm0-1.85l.44-.44-.22-.22-.43.44.21.22zm0-1.86l.44-.44-.22-.22-.43.44.21.22zm0-1.86l.44-.38-.22-.27-.43.44.21.21zm.93 4.64l.44-.43-.22-.22-.44.44.22.21zm0-1.85l.44-.44-.22-.22-.44.44.22.22zm0-1.86l.44-.43-.22-.22-.44.43.22.22zm0-1.8l.44-.44-.22-.27-.44.44.22.27zm.93 6.44l.44-.43-.28-.22-.38.43.22.22zm0-1.85l.44-.44-.28-.22-.38.44.22.22zm0-1.86l.44-.44-.28-.22-.38.44.22.22zm0-1.86l.44-.38-.28-.27-.38.44.22.21zm.93 4.64l.44-.43-.28-.22-.43.44.27.21zm0-1.85l.44-.44-.28-.22-.43.44.27.22zm0-1.86l.44-.43-.28-.22-.43.43.27.22zm0-1.8l.44-.44-.28-.27-.43.44.27.27zm.93 6.44l.43-.43-.27-.22-.44.43.28.22zm0-1.85l.43-.44-.27-.22-.44.44.28.22zm0-1.86l.43-.44-.27-.22-.44.44.28.22zm0-1.86l.43-.38-.27-.27-.44.44.28.21zm4.8-7.48h.6l6.23 6.17q-.11.28-.33.71l-6.5-6.49v-.39zm5.08 9.12l-5.52-5.46q.17-.38.28-.71l5.68 5.63q-.11.16-.22.3-.11.13-.22.24zm20.91 2.51l-1.75 1.75h-1.36l3.11-3.11v1.36zm-10.48 1.75l7.64-7.64h1.36l-7.64 7.64h-1.36zm10.48-1.26v1.26h-1.26l1.26-1.26zm-15.29-5.02l1.37-1.36h1.36l-2.73 2.73v-1.37zm18.73-30.19l1.75-1.75h1.36l-3.11 3.12v-1.37zm-18.73 29.7v-.87h.88l-.88.87zm15.29 1.31l-5.46 5.46h-1.37l6.83-6.82v1.36zm0 1.86l-3.6 3.6h-1.37l4.97-4.97v1.37zm18.12-34.62h.61v.77l-4.26 4.26.27.21 3.99-3.98v1.36l-4.26 4.26.27.22 3.99-3.98v1.36l-3.17 3.17h-.66v.6l-.6-.6h-.11l.06-.06-.27-.22-.28.28h-.27l1.47 1.47v.98l-2.45-2.45h-.11l.05-.06-.22-.22-.32.28h-.28l3.33 3.33v.98l-4.31-4.31h-.11l.06-.06-.22-.22-.33.28h-.27l5.18 5.18v.99l-6.17-6.17h-.05v-.06l-.22-.22-.27.28h-.33l7.04 7.04v8.35l-.11-.11h-.87l.98.99v.98l-1.96-1.97h-.88l2.84 2.84v.99l-3.82-3.83h-.82l4.64 4.64v.99l-5.62-5.63h-.87l6.49 6.5v.98l-7.48-7.48h-11.24v7.65h.49l-7.64 7.64h-1.37l7.64-7.64h-.49l-7.64 7.64h-1.37l7.65-7.64h-.49l-7.65 7.64h-.6v-.76l6.88-6.88h-.49l-6.39 6.38v-1.36l5.03-5.02h-.5l-4.53 4.53v-1.37l3.17-3.16h.65v-22.93H228l-3.71-3.72v-.98l4.7 4.7h.87l-5.57-5.57v-.98l6.55 6.55h.88l-7.43-7.43v-.22h.77l7.64 7.65h.87l-7.64-7.65h.98l7.65 7.65h.82l-7.65-7.65h.98l7.65 7.65h-.6v7.64h11.08v-.87l.87.87h.88l-1.75-1.75V146l2.73 2.73h.87l-3.6-3.6v-.99l4.59 4.59h.87l-5.46-5.46v-.98l6.44 6.44h.82l-7.26-7.26v-.38h-.44l.44-.44v-.16l.11.05.38-.44-.22-.21-1.2 1.2h-1.36l2.29-2.3v-.16l.11.05.38-.43-.22-.22-3.05 3.06h-1.04v-.33l3.82-3.82v-.17l.11.06.38-.38-.22-.28-4.09 4.1v-1.37l3.82-3.82v-.16l.11.11.38-.44-.22-.27-4.09 4.09v-1.36l3.6-3.61h1.37l-.39.39.22.27.44-.44-.16-.22h1.74l-.38.39.22.27.44-.44-.22-.22h1.8l-.38.39.22.27.43-.44-.22-.22h1.81l-.39.39.22.27.44-.44-.22-.22h1.8l-1.36 1.31.27.28 1.58-1.59h1.31l-3.16 3.17.27.22 3.38-3.39zm-10.1 5.95l.22.22.44-.43-.22-.22-.44.43zm0-1.85l.22.22.44-.44-.22-.22-.44.44zm0-1.86l.22.27.44-.43-.22-.27-.44.43zm.93 4.64l.22.22.44-.44-.22-.21-.44.43zm0-1.85l.22.21.44-.43-.22-.22-.44.44zm0-1.86l.22.22.44-.38-.22-.28-.44.44zm0-1.86l.22.28.44-.44-.22-.27-.44.43zm.93 4.64l.22.22.44-.43-.22-.22-.44.43zm0-1.85l.22.22.44-.44-.22-.22-.44.44zm0-1.86l.22.27.44-.43-.22-.27-.44.43zm.93 4.64l.22.22.43-.44-.21-.21-.44.43zm0-1.85l.22.21.43-.43-.21-.22-.44.44zm0-1.86l.22.22.43-.38-.21-.28-.44.44zm0-1.86l.22.28.43-.44-.21-.27-.44.43zm.93 4.64l.22.22.43-.43-.22-.22-.43.43zm0-1.85l.22.22.43-.44-.22-.22-.43.44zm0-1.86l.22.27.43-.43-.22-.27-.43.43zm.93 4.64l.21.22.44-.44-.22-.21-.43.43zm0-1.85l.21.21.44-.43-.22-.22-.43.44zm0-1.86l.21.22.44-.38-.22-.28-.43.44zm0-1.86l.21.28.44-.44-.22-.27-.43.43zm.92 4.64l.22.22.44-.43-.27-.22-.39.43zm0-1.85l.22.22.44-.44-.27-.22-.39.44zm0-1.86l.22.27.44-.43-.27-.27-.39.43zm5.14 4.59v.82h-.82l.82-.82zm0-.49l-1.32 1.31h-1.36l2.68-2.68v1.37zm-26.05 31.88h-1.36l7.64-7.64h1.04v.32l-7.32 7.32zm10.76-36.91v-1.31h1.31l-1.31 1.31zm-5.02-1.31l1.58 1.59v.98l-2.57-2.57h.99zm.81 0h.77v.77l-.77-.77zm-2.67 0l3.44 3.44v.99l-4.42-4.43h.98zm-11.85 4.81l2.84 2.84h-.98l-1.86-1.86v-.98zm0 1.85l.99.99h-.99v-.99zm22.55 17.97v-.99l6.93 6.94h4.54v7.64h-15.29v-7.64h4.2l-.38-.39v-.98l1.37 1.37h.87l-2.24-2.24v-.98l3.22 3.22h.87l-4.09-4.1v-.98l5.08 5.08h.87l-5.95-5.95zm-7.26-17.47v.49h-.49l-7.65-7.65h.99l7.15 7.16zm-5.3-7.16l5.3 5.3v.98l-6.28-6.28h.98zm-3.71 0l7.64 7.65h-.98l-7.64-7.65h.98z"
              data-gra="path-name"/>
        <g data-gra="path-slogan" class="tp-slogan iconsvg-slogansvg">
            <path d="M81.69 182.098h71.055v1H81.69zM187.255 182.098h71.055v1h-71.055zM155.745 178.665v7.87h2.02c.59 0 1.11-.09 1.57-.27.45-.18.84-.44 1.15-.78.31-.34.55-.76.71-1.25.16-.49.24-1.05.24-1.67 0-1.26-.32-2.22-.95-2.89-.63-.68-1.56-1.01-2.77-1.01zm1.9 7.05h-.9v-6.24h.9c.92 0 1.61.27 2.07.8.46.52.69 1.29.69 2.29s-.23 1.77-.69 2.33c-.46.55-1.15.82-2.07.82zm5.48-7.05v7.87h1v-7.87zm6.5 4.67h-2.36l.37-1.2c.15-.44.28-.88.41-1.32.13-.43.25-.88.37-1.34h.05c.13.46.26.91.38 1.34.13.44.27.88.41 1.32zm.26.8l.74 2.4h1.07l-2.67-7.87h-1.12l-2.67 7.87h1.02l.76-2.4zm3.92-1.74v-2.93h1.32c.62 0 1.09.11 1.42.31.32.21.49.58.49 1.1 0 .51-.17.89-.49 1.14-.33.25-.8.38-1.42.38zm3.32 4.14h1.13l-1.99-3.43c.54-.14.96-.39 1.28-.76.32-.37.48-.86.48-1.47 0-.41-.06-.76-.2-1.04s-.33-.5-.57-.68c-.24-.18-.54-.3-.88-.38-.34-.07-.71-.11-1.11-.11h-2.46v7.87h1v-3.32h1.43zm3.76-3.05v3.05h1.01v-3.05l2.36-4.82h-1.04l-1.01 2.22c-.12.29-.25.57-.38.85-.14.28-.28.57-.41.86h-.05c-.14-.29-.26-.58-.38-.86s-.25-.56-.38-.85l-1.02-2.22h-1.06z"/>
        </g>
    </g>
</svg>
